HIERARCHY
ROOT hip
{
	OFFSET 0.000000 0.000000 0.000000 
	CHANNELS 6 Xposition Yposition Zposition Zrotation Xrotation Yrotation
	JOINT abdomen
	{
		OFFSET 0.000000 3.402643 0.000000 
		CHANNELS 3 Zrotation Xrotation Yrotation
		JOINT chest
		{
			OFFSET 0.000000 8.438565 -0.680529 
			CHANNELS 3 Zrotation Xrotation Yrotation
			JOINT neck
			{
				OFFSET 0.000000 10.207942 -0.272212 
				CHANNELS 3 Zrotation Xrotation Yrotation
				JOINT head
				{
					OFFSET 0.000000 3.130431 0.000000 
					CHANNELS 3 Zrotation Xrotation Yrotation
					End Site
					{
						OFFSET 0.000000 3.130435 0.000000 
					}
				}
			}
			JOINT lCollar
			{
				OFFSET 3.470700 6.669187 -0.816635 
				CHANNELS 3 Zrotation Xrotation Yrotation
				JOINT lShldr
				{
					OFFSET 3.198488 0.000000 0.000000 
					CHANNELS 3 Zrotation Xrotation Yrotation
					JOINT lForeArm
					{
						OFFSET 10.139888 0.000000 0.000000 
						CHANNELS 3 Zrotation Xrotation Yrotation
						JOINT lHand
						{
							OFFSET 8.370511 0.000000 0.000000 
							CHANNELS 3 Zrotation Xrotation Yrotation
							End Site
							{
								OFFSET 4.083176 0.000000 0.000000 
							}
						}
					}
				}
			}
			JOINT rCollar
			{
				OFFSET -3.470700 6.669187 -0.816635 
				CHANNELS 3 Zrotation Xrotation Yrotation
				JOINT rShldr
				{
					OFFSET -3.198488 0.000000 0.000000 
					CHANNELS 3 Zrotation Xrotation Yrotation
					JOINT rForeArm
					{
						OFFSET -10.139888 0.000000 0.000000 
						CHANNELS 3 Zrotation Xrotation Yrotation
						JOINT rHand
						{
							OFFSET -8.370511 0.000000 0.000000 
							CHANNELS 3 Zrotation Xrotation Yrotation
							End Site
							{
								OFFSET -4.083176 0.000000 0.000000 
							}
						}
					}
				}
			}
		}
	}
	JOINT lThigh
	{
		OFFSET 5.308129 -1.633274 1.361059 
		CHANNELS 3 Zrotation Xrotation Yrotation
		JOINT lShin
		{
			OFFSET -2.041588 -20.007561 0.000000 
			CHANNELS 3 Zrotation Xrotation Yrotation
			JOINT lFoot
			{
				OFFSET 0.000000 -19.190928 -1.224953 
				CHANNELS 3 Zrotation Xrotation Yrotation
				End Site
				{
					OFFSET 0.000000 -2.449906 4.627600 
				}
			}
		}
	}
	JOINT rThigh
	{
		OFFSET -5.308129 -1.633274 1.361059 
		CHANNELS 3 Zrotation Xrotation Yrotation
		JOINT rShin
		{
			OFFSET 2.041588 -20.007561 0.000000 
			CHANNELS 3 Zrotation Xrotation Yrotation
			JOINT rFoot
			{
				OFFSET 0.000000 -19.190928 -1.224953 
				CHANNELS 3 Zrotation Xrotation Yrotation
				End Site
				{
					OFFSET 0.000000 -2.449906 4.627600 
				}
			}
		}
	}
}
MOTION
Frames: 6
Frame Time: 0.033333
-3.235869 45.112186 -15.104504 1.504156 1.044561 46.525574 -0.000000 -0.000002 -0.000000 -0.156599 3.828112 -4.491526 4.737924 15.710521 -30.895018 -0.954937 -15.993991 -0.145955 -2.000757 -0.069240 1.990978 -76.158913 17.682280 44.443672 5.805918 6.220372 -79.063087 3.547432 33.688225 -8.118368 1.990970 -0.069577 -2.000746 67.235489 5.410904 5.993599 -13.768977 5.273431 71.515785 107.882950 -69.666710 95.801147 12.555997 -22.681828 -4.137217 -12.941198 52.339291 7.274145 -7.333931 -28.645945 -13.050153 -32.553955 -18.019247 -33.403355 9.968908 30.559252 -0.065711 3.064206 -4.154003 -10.960033 
-3.323897 44.951256 -15.004298 1.562795 1.112864 45.340878 -0.000000 -0.000002 -0.000000 -0.254524 3.994103 -9.357314 4.202112 16.286564 -26.638689 -0.954937 -15.993991 -0.145955 -2.000757 -0.069240 1.990978 -71.827377 19.918003 41.859154 5.816160 6.119836 -79.982971 5.968855 29.618763 -8.939525 1.990970 -0.069577 -2.000746 70.957733 -2.344141 11.327963 -13.636774 5.637511 70.029861 106.612366 -68.581085 88.073540 14.139386 -21.643131 0.905596 -13.031366 52.466972 7.370185 -8.624093 -30.370466 -13.775203 -32.238358 -19.152214 -31.598299 10.256790 30.805862 -0.220861 2.720832 -4.403355 -12.568913 
-3.334693 44.685322 -14.228040 3.096485 1.296915 36.453903 -0.000000 -0.000002 -0.000000 -0.186130 4.531221 -21.567329 1.731976 16.555342 -13.960167 -0.954937 -15.993991 -0.145955 -2.000757 -0.069240 1.990978 -61.031780 21.337542 30.768188 5.800622 6.225310 -79.014214 5.040335 29.034355 -9.414577 1.990970 -0.069577 -2.000746 74.759605 -3.070730 12.449806 -13.862055 5.019230 72.553619 107.413399 -66.847343 96.021233 14.891431 -16.506390 7.349494 -12.962811 52.356476 7.306014 -9.975981 -34.680916 -11.352078 -31.061747 -23.880327 -24.431625 11.052813 31.540241 -0.646612 1.588945 -3.736636 -13.497826 
-2.312371 44.308117 -12.445346 3.955733 1.042426 23.062691 -0.000000 -0.000002 -0.000000 -0.009804 5.048828 -33.778423 -0.732599 16.307323 -1.288424 -0.954937 -15.993991 -0.145955 -2.000757 -0.069240 1.990978 -45.443920 20.503069 16.030401 5.777953 6.317377 -78.072586 3.756694 28.403460 -9.814085 1.990970 -0.069577 -2.000746 78.188805 -2.991269 13.329042 -13.929990 4.793564 73.456726 108.348694 -61.984291 108.654152 13.974707 -8.854063 13.576053 -12.908443 52.405357 7.244638 -10.382086 -41.077072 -5.470517 -28.307863 -28.891996 -16.619690 11.901950 32.535416 -1.136464 0.829294 -3.870074 -10.312832 
-1.390702 43.962250 -10.060541 4.453341 0.564697 9.125943 -0.000000 -0.000002 -0.000000 0.176661 5.722631 -47.458973 -3.099798 15.408175 12.825785 -0.954937 -15.993991 -0.145955 -2.000757 -0.069240 1.990978 -26.859022 13.708995 3.266995 5.765184 6.338878 -77.878036 3.434531 26.107647 -10.396997 1.990970 -0.069577 -2.000746 83.051666 0.105005 18.066433 -13.492265 6.029290 68.428558 106.338623 -51.525497 120.460754 10.766612 -2.359982 11.559709 -12.511374 52.093288 6.852174 -8.768787 -43.212219 -3.987895 -24.526968 -33.663429 -8.159201 13.202686 34.765968 -1.842815 0.250341 -5.161955 -6.631235 
-0.569685 43.646927 -7.073591 4.648438 -0.000009 -4.296875 -0.000000 -0.000002 -0.000000 0.510936 6.337644 -61.169552 -5.698330 15.580705 34.855549 -0.954937 -15.993991 -0.145955 -2.000757 -0.069240 1.990978 -6.485377 5.003947 -6.675953 5.778012 6.306518 -78.159515 3.184002 23.308529 -10.920387 1.990970 -0.069577 -2.000746 88.503181 4.294817 22.537453 -12.703775 7.625928 61.582577 101.048248 -39.140804 132.400589 5.231946 1.874175 1.860557 -12.204194 52.038876 6.538580 -3.996439 -37.268532 -8.438182 -22.133924 -36.399353 -4.276604 15.173687 38.161736 -3.060226 -0.396006 -8.235791 4.489488 
